<svg xmlns="http://www.w3.org/2000/svg" xmlns:xlink="http://www.w3.org/1999/xlink" width="500" zoomAndPan="magnify" viewBox="0 0 375 374.999991" height="500" preserveAspectRatio="xMidYMid meet" version="1.0"><defs><g/><clipPath id="64b78d33c0"><path d="M 47 165 L 131.621094 165 L 131.621094 217 L 47 217 Z M 47 165 " clip-rule="nonzero"/></clipPath><clipPath id="d0c731b800"><path d="M 31.871094 150.222656 L 103 150.222656 L 103 231.222656 L 31.871094 231.222656 Z M 31.871094 150.222656 " clip-rule="nonzero"/></clipPath><clipPath id="369c01dd9b"><path d="M 191 7 L 215.640625 7 L 215.640625 36 L 191 36 Z M 191 7 " clip-rule="nonzero"/></clipPath><clipPath id="998cb15c50"><rect x="0" width="216" y="0" height="81"/></clipPath><clipPath id="a0e90f9f54"><path d="M 62 181 L 71.992188 181 L 71.992188 199 L 62 199 Z M 62 181 " clip-rule="nonzero"/></clipPath><clipPath id="02ae0f5088"><path d="M 26.242188 141.242188 L 71.992188 141.242188 L 71.992188 233.492188 L 26.242188 233.492188 Z M 26.242188 141.242188 " clip-rule="nonzero"/></clipPath></defs><g clip-path="url(#64b78d33c0)"><path fill="#df6b00" d="M 105.296875 199.363281 C 105.628906 199.359375 105.933594 199.484375 106.152344 199.695312 C 106.375 199.910156 106.515625 200.203125 106.527344 200.535156 C 106.53125 200.867188 106.410156 201.171875 106.195312 201.390625 C 105.980469 201.613281 105.6875 201.753906 105.355469 201.761719 L 104.738281 201.777344 C 102.089844 201.835938 100.695312 201.886719 98.691406 202.476562 C 96.695312 203.070312 94.792969 204.214844 92.5625 206.46875 L 92.535156 206.492188 C 90.488281 208.671875 88.359375 210.476562 86.148438 211.914062 C 83.933594 213.351562 81.625 214.417969 79.238281 215.113281 C 76.828125 215.8125 74.347656 216.132812 71.785156 216.074219 C 69.21875 216.015625 66.582031 215.582031 63.863281 214.765625 C 63.828125 214.753906 63.789062 214.738281 63.753906 214.722656 C 63.71875 214.707031 63.6875 214.695312 63.652344 214.675781 C 61.023438 213.488281 58.710938 212.101562 56.714844 210.511719 C 54.710938 208.917969 53.023438 207.128906 51.652344 205.132812 C 50.269531 203.128906 49.210938 200.925781 48.472656 198.527344 C 47.738281 196.128906 47.320312 193.539062 47.226562 190.75 L 47.226562 190.644531 C 47.320312 187.855469 47.738281 185.261719 48.472656 182.871094 C 49.210938 180.472656 50.273438 178.273438 51.652344 176.265625 C 53.03125 174.261719 54.726562 172.460938 56.742188 170.871094 C 58.75 169.28125 61.070312 167.890625 63.710938 166.707031 L 63.703125 166.691406 L 63.871094 166.640625 C 66.582031 165.828125 69.226562 165.390625 71.789062 165.332031 C 74.351562 165.273438 76.835938 165.59375 79.242188 166.292969 C 81.640625 166.992188 83.953125 168.0625 86.179688 169.507812 C 88.363281 170.929688 90.46875 172.714844 92.488281 174.855469 L 92.492188 174.855469 L 92.609375 174.984375 C 93.476562 175.945312 94.402344 176.753906 95.386719 177.433594 C 96.371094 178.105469 97.410156 178.636719 98.515625 179.023438 C 99.621094 179.414062 100.789062 179.660156 102.019531 179.765625 C 103.253906 179.875 104.550781 179.835938 105.910156 179.65625 L 105.964844 179.648438 L 106.019531 179.644531 C 106.382812 179.628906 106.730469 179.628906 107.050781 179.648438 C 107.375 179.664062 107.683594 179.703125 107.972656 179.757812 C 108.46875 179.847656 108.917969 179.984375 109.300781 180.171875 C 109.699219 180.367188 110.035156 180.605469 110.324219 180.90625 C 110.621094 181.214844 110.851562 181.566406 111.011719 181.96875 C 111.171875 182.363281 111.257812 182.804688 111.277344 183.285156 C 111.285156 183.472656 111.285156 183.671875 111.269531 183.867188 C 111.25 184.066406 111.230469 184.269531 111.191406 184.484375 L 111.191406 184.519531 C 111.15625 185.265625 110.898438 185.917969 110.433594 186.484375 C 110.039062 186.960938 109.496094 187.367188 108.800781 187.703125 C 109.539062 188.035156 110.125 188.429688 110.566406 188.894531 C 111.042969 189.394531 111.34375 189.976562 111.464844 190.632812 L 111.472656 190.632812 L 111.496094 190.804688 C 111.511719 190.910156 111.523438 191.023438 111.53125 191.136719 C 111.535156 191.25 111.535156 191.359375 111.523438 191.46875 C 111.488281 192.007812 111.316406 192.488281 111.015625 192.917969 C 110.71875 193.347656 110.289062 193.726562 109.734375 194.042969 C 109.554688 194.144531 109.363281 194.242188 109.160156 194.335938 C 109.078125 194.371094 108.992188 194.402344 108.90625 194.441406 C 109.050781 194.503906 109.191406 194.574219 109.324219 194.644531 C 109.574219 194.777344 109.804688 194.917969 110.011719 195.0625 C 110.527344 195.425781 110.910156 195.828125 111.171875 196.277344 C 111.433594 196.734375 111.5625 197.230469 111.566406 197.773438 C 111.566406 197.890625 111.5625 198.003906 111.550781 198.117188 C 111.539062 198.226562 111.519531 198.339844 111.496094 198.453125 C 111.472656 198.644531 111.429688 198.832031 111.378906 199.011719 C 111.351562 199.109375 111.320312 199.203125 111.289062 199.296875 C 112.015625 199.300781 112.757812 199.304688 113.453125 199.3125 C 114.617188 199.316406 115.636719 199.324219 116.164062 199.324219 L 123.964844 193.703125 L 123.964844 187.140625 L 116.171875 181.53125 L 112.597656 181.53125 C 112.265625 181.53125 111.96875 181.394531 111.75 181.175781 C 111.53125 180.957031 111.394531 180.660156 111.394531 180.328125 C 111.394531 179.996094 111.53125 179.699219 111.75 179.480469 C 111.96875 179.261719 112.265625 179.125 112.597656 179.125 L 116.726562 179.125 L 116.726562 179.140625 C 116.789062 179.152344 116.859375 179.167969 116.921875 179.183594 C 117.039062 179.222656 117.152344 179.277344 117.253906 179.355469 L 131.253906 189.445312 C 131.28125 189.464844 131.308594 189.480469 131.335938 189.507812 C 131.363281 189.527344 131.390625 189.550781 131.410156 189.578125 C 131.410156 189.578125 131.425781 189.59375 131.425781 189.59375 C 131.472656 189.640625 131.511719 189.6875 131.554688 189.742188 C 131.59375 189.796875 131.625 189.855469 131.65625 189.914062 L 131.667969 189.933594 C 131.699219 190.003906 131.726562 190.078125 131.742188 190.152344 C 131.757812 190.226562 131.769531 190.304688 131.773438 190.378906 C 131.773438 190.398438 131.773438 190.414062 131.773438 190.429688 L 131.773438 190.484375 C 131.769531 190.558594 131.757812 190.640625 131.742188 190.707031 C 131.726562 190.785156 131.699219 190.851562 131.667969 190.929688 L 131.65625 190.949219 C 131.628906 191.007812 131.597656 191.066406 131.554688 191.121094 C 131.515625 191.171875 131.472656 191.226562 131.425781 191.269531 C 131.425781 191.269531 131.410156 191.285156 131.410156 191.285156 C 131.390625 191.308594 131.363281 191.332031 131.335938 191.355469 C 131.308594 191.375 131.28125 191.398438 131.253906 191.414062 L 117.253906 201.5 C 117.148438 201.582031 117.03125 201.632812 116.90625 201.671875 C 116.785156 201.710938 116.652344 201.726562 116.523438 201.726562 C 116.253906 201.726562 114.039062 201.714844 111.851562 201.703125 C 110.6875 201.699219 109.539062 201.6875 108.6875 201.675781 C 108.464844 201.671875 108.246094 201.609375 108.058594 201.492188 C 107.875 201.371094 107.722656 201.207031 107.621094 201 C 107.476562 200.699219 107.472656 200.375 107.574219 200.082031 C 107.675781 199.792969 107.886719 199.542969 108.1875 199.398438 C 108.324219 199.332031 108.449219 199.253906 108.554688 199.167969 C 108.65625 199.082031 108.746094 198.992188 108.820312 198.890625 C 108.898438 198.789062 108.957031 198.671875 109.007812 198.539062 C 109.058594 198.402344 109.09375 198.253906 109.117188 198.09375 L 109.136719 197.921875 L 109.148438 197.921875 L 109.152344 197.875 C 109.160156 197.835938 109.160156 197.804688 109.160156 197.773438 C 109.160156 197.652344 109.117188 197.535156 109.035156 197.410156 C 108.945312 197.277344 108.804688 197.144531 108.625 197.015625 C 108.351562 196.824219 108 196.640625 107.566406 196.480469 C 107.125 196.3125 106.605469 196.160156 106.011719 196.027344 C 105.441406 195.898438 104.804688 195.78125 104.113281 195.6875 C 103.417969 195.589844 102.65625 195.507812 101.835938 195.445312 C 101.046875 195.457031 100.207031 195.445312 99.320312 195.417969 C 98.429688 195.390625 97.492188 195.34375 96.511719 195.273438 C 96.183594 195.253906 95.894531 195.097656 95.691406 194.867188 C 95.488281 194.640625 95.375 194.328125 95.398438 194 C 95.417969 193.667969 95.574219 193.378906 95.804688 193.175781 C 96.03125 192.972656 96.34375 192.859375 96.671875 192.882812 C 97.628906 192.882812 98.542969 192.894531 99.40625 192.925781 C 100.277344 192.953125 101.101562 192.996094 101.871094 193.054688 C 102.605469 193.042969 103.300781 193.015625 103.945312 192.96875 C 104.59375 192.925781 105.183594 192.859375 105.730469 192.78125 C 106.359375 192.683594 106.910156 192.574219 107.378906 192.4375 C 107.839844 192.304688 108.222656 192.152344 108.527344 191.972656 C 108.726562 191.855469 108.878906 191.746094 108.976562 191.621094 C 109.066406 191.519531 109.117188 191.414062 109.121094 191.3125 C 109.121094 191.289062 109.121094 191.265625 109.121094 191.242188 C 109.121094 191.222656 109.117188 191.191406 109.109375 191.164062 L 109.09375 191.054688 C 109.019531 190.734375 108.78125 190.449219 108.375 190.1875 C 107.902344 189.882812 107.214844 189.625 106.3125 189.40625 C 105.832031 189.292969 105.304688 189.191406 104.714844 189.113281 C 104.132812 189.03125 103.5 188.96875 102.816406 188.921875 C 102.296875 188.953125 101.746094 188.96875 101.167969 188.980469 C 100.59375 188.988281 99.988281 188.988281 99.355469 188.980469 C 98.878906 188.972656 98.398438 188.960938 97.90625 188.941406 C 97.410156 188.925781 96.914062 188.902344 96.40625 188.878906 C 96.074219 188.859375 95.78125 188.710938 95.574219 188.480469 C 95.363281 188.253906 95.246094 187.949219 95.265625 187.617188 C 95.28125 187.296875 95.417969 187.011719 95.632812 186.8125 C 95.847656 186.609375 96.132812 186.480469 96.449219 186.480469 C 97.660156 186.429688 98.800781 186.410156 99.863281 186.414062 C 100.925781 186.421875 101.90625 186.453125 102.808594 186.511719 C 103.652344 186.457031 104.410156 186.382812 105.089844 186.277344 C 105.769531 186.167969 106.359375 186.035156 106.871094 185.875 C 107.507812 185.679688 107.988281 185.449219 108.308594 185.191406 C 108.609375 184.953125 108.761719 184.691406 108.78125 184.402344 L 108.785156 184.355469 C 108.785156 184.320312 108.785156 184.289062 108.789062 184.261719 C 108.796875 184.230469 108.796875 184.199219 108.804688 184.160156 C 108.832031 184.023438 108.847656 183.882812 108.859375 183.75 C 108.871094 183.621094 108.875 183.5 108.871094 183.386719 C 108.863281 183.207031 108.832031 183.046875 108.785156 182.90625 C 108.738281 182.773438 108.671875 182.667969 108.582031 182.574219 C 108.480469 182.472656 108.347656 182.382812 108.175781 182.308594 C 108 182.230469 107.785156 182.171875 107.535156 182.121094 C 107.34375 182.089844 107.128906 182.0625 106.894531 182.054688 C 106.660156 182.042969 106.414062 182.035156 106.140625 182.046875 C 104.601562 182.246094 103.128906 182.28125 101.730469 182.160156 C 100.320312 182.035156 98.976562 181.75 97.699219 181.292969 C 96.40625 180.839844 95.1875 180.222656 94.039062 179.4375 C 92.894531 178.652344 91.820312 177.707031 90.816406 176.59375 L 90.792969 176.570312 C 88.902344 174.550781 86.9375 172.878906 84.902344 171.550781 C 82.863281 170.21875 80.75 169.238281 78.566406 168.601562 C 76.398438 167.972656 74.148438 167.683594 71.820312 167.734375 C 69.5 167.789062 67.09375 168.183594 64.613281 168.925781 C 62.191406 170.023438 60.066406 171.292969 58.234375 172.746094 C 56.40625 174.199219 54.867188 175.828125 53.621094 177.632812 C 52.378906 179.441406 51.421875 181.433594 50.75 183.613281 C 50.082031 185.789062 49.703125 188.15625 49.613281 190.703125 C 49.703125 193.25 50.082031 195.617188 50.75 197.796875 C 51.417969 199.972656 52.371094 201.964844 53.621094 203.777344 C 54.867188 205.585938 56.40625 207.214844 58.234375 208.664062 C 60.066406 210.109375 62.191406 211.386719 64.613281 212.480469 C 67.09375 213.21875 69.5 213.613281 71.820312 213.671875 C 74.148438 213.722656 76.398438 213.4375 78.566406 212.804688 C 80.746094 212.171875 82.847656 211.191406 84.882812 209.867188 C 86.921875 208.542969 88.886719 206.867188 90.785156 204.847656 L 90.816406 204.8125 L 90.851562 204.769531 C 93.425781 202.179688 95.59375 200.859375 97.859375 200.175781 C 100.117188 199.492188 101.742188 199.441406 104.683594 199.375 L 105.296875 199.359375 Z M 105.296875 199.363281 " fill-opacity="1" fill-rule="nonzero"/></g><path fill="#df6b00" d="M 112.644531 197.070312 L 116.191406 197.148438 L 121.53125 193.332031 L 121.53125 187.519531 L 116.308594 183.679688 L 112.644531 183.679688 Z M 112.644531 197.070312 " fill-opacity="1" fill-rule="evenodd"/><g clip-path="url(#d0c731b800)"><path fill="#df6b00" d="M 91.644531 212.539062 C 91.449219 212.265625 91.386719 211.945312 91.433594 211.640625 C 91.488281 211.335938 91.652344 211.054688 91.921875 210.863281 C 92.191406 210.671875 92.511719 210.605469 92.816406 210.652344 C 93.121094 210.707031 93.40625 210.871094 93.597656 211.140625 L 99.375 219.292969 C 99.566406 219.566406 99.632812 219.886719 99.582031 220.191406 C 99.53125 220.496094 99.363281 220.777344 99.097656 220.972656 C 98.824219 221.164062 98.503906 221.226562 98.199219 221.179688 C 97.894531 221.125 97.613281 220.960938 97.421875 220.691406 Z M 93.832031 171.4375 C 93.558594 171.628906 93.238281 171.691406 92.933594 171.644531 C 92.632812 171.589844 92.347656 171.425781 92.15625 171.160156 C 91.964844 170.886719 91.898438 170.566406 91.949219 170.261719 C 92 169.957031 92.167969 169.675781 92.433594 169.480469 L 100.585938 163.703125 C 100.859375 163.511719 101.179688 163.449219 101.484375 163.496094 C 101.789062 163.550781 102.074219 163.714844 102.265625 163.980469 C 102.457031 164.253906 102.519531 164.574219 102.472656 164.878906 C 102.417969 165.183594 102.253906 165.464844 101.988281 165.660156 Z M 88.058594 166.496094 C 87.847656 166.753906 87.554688 166.898438 87.25 166.929688 C 86.945312 166.957031 86.625 166.871094 86.367188 166.65625 C 86.109375 166.445312 85.964844 166.148438 85.933594 165.847656 C 85.90625 165.542969 85.992188 165.222656 86.207031 164.964844 L 92.589844 157.269531 C 92.800781 157.011719 93.097656 156.871094 93.398438 156.835938 C 93.703125 156.808594 94.023438 156.894531 94.28125 157.109375 C 94.539062 157.324219 94.683594 157.617188 94.714844 157.921875 C 94.742188 158.226562 94.65625 158.546875 94.441406 158.800781 Z M 81.203125 163.21875 C 81.066406 163.515625 80.820312 163.738281 80.53125 163.84375 C 80.242188 163.949219 79.917969 163.949219 79.613281 163.8125 C 79.3125 163.671875 79.09375 163.425781 78.988281 163.136719 C 78.878906 162.851562 78.878906 162.523438 79.019531 162.21875 L 83.191406 153.136719 C 83.328125 152.835938 83.574219 152.617188 83.863281 152.511719 C 84.152344 152.40625 84.476562 152.40625 84.78125 152.542969 C 85.082031 152.683594 85.300781 152.929688 85.40625 153.214844 C 85.511719 153.503906 85.511719 153.832031 85.375 154.136719 Z M 73.738281 161.824219 C 73.683594 162.152344 73.503906 162.429688 73.253906 162.605469 C 73 162.78125 72.6875 162.867188 72.355469 162.8125 C 72.03125 162.757812 71.75 162.578125 71.574219 162.328125 C 71.398438 162.074219 71.3125 161.761719 71.367188 161.429688 L 73.042969 151.578125 C 73.097656 151.25 73.277344 150.972656 73.53125 150.796875 C 73.78125 150.621094 74.097656 150.535156 74.425781 150.589844 C 74.753906 150.644531 75.03125 150.824219 75.207031 151.074219 C 75.382812 151.328125 75.46875 151.640625 75.414062 151.972656 Z M 66.160156 162.421875 C 66.191406 162.753906 66.085938 163.0625 65.886719 163.296875 C 65.691406 163.535156 65.40625 163.695312 65.078125 163.726562 C 64.746094 163.757812 64.4375 163.652344 64.199219 163.453125 C 63.964844 163.253906 63.804688 162.96875 63.773438 162.640625 L 62.84375 152.691406 C 62.8125 152.363281 62.917969 152.050781 63.117188 151.816406 C 63.3125 151.582031 63.601562 151.421875 63.929688 151.390625 C 64.257812 151.359375 64.570312 151.464844 64.804688 151.664062 C 65.039062 151.859375 65.199219 152.144531 65.230469 152.472656 Z M 59 164.953125 C 59.113281 165.265625 59.089844 165.59375 58.960938 165.871094 C 58.835938 166.148438 58.597656 166.378906 58.285156 166.496094 C 57.972656 166.609375 57.644531 166.589844 57.367188 166.460938 C 57.089844 166.332031 56.859375 166.097656 56.742188 165.78125 L 53.269531 156.410156 C 53.15625 156.101562 53.179688 155.769531 53.308594 155.492188 C 53.433594 155.214844 53.671875 154.984375 53.984375 154.867188 C 54.296875 154.753906 54.625 154.777344 54.902344 154.902344 C 55.179688 155.03125 55.410156 155.265625 55.527344 155.582031 Z M 52.730469 169.246094 C 52.921875 169.519531 52.988281 169.839844 52.9375 170.144531 C 52.886719 170.449219 52.71875 170.730469 52.453125 170.925781 C 52.179688 171.117188 51.859375 171.179688 51.554688 171.132812 C 51.25 171.078125 50.96875 170.914062 50.777344 170.644531 L 45 162.492188 C 44.804688 162.21875 44.742188 161.898438 44.789062 161.59375 C 44.84375 161.289062 45.007812 161.007812 45.277344 160.816406 C 45.546875 160.625 45.867188 160.558594 46.171875 160.605469 C 46.476562 160.660156 46.761719 160.824219 46.953125 161.09375 Z M 47.789062 175.019531 C 48.046875 175.234375 48.191406 175.527344 48.222656 175.832031 C 48.25 176.136719 48.164062 176.457031 47.949219 176.710938 C 47.738281 176.96875 47.445312 177.113281 47.140625 177.144531 C 46.835938 177.171875 46.515625 177.085938 46.257812 176.871094 L 38.5625 170.492188 C 38.308594 170.277344 38.164062 169.984375 38.128906 169.679688 C 38.105469 169.375 38.191406 169.054688 38.402344 168.796875 C 38.617188 168.542969 38.910156 168.398438 39.214844 168.367188 C 39.519531 168.339844 39.839844 168.425781 40.097656 168.636719 Z M 44.511719 181.875 C 44.8125 182.015625 45.03125 182.261719 45.136719 182.550781 C 45.242188 182.835938 45.242188 183.164062 45.105469 183.46875 C 44.964844 183.765625 44.71875 183.984375 44.433594 184.09375 C 44.144531 184.199219 43.816406 184.199219 43.511719 184.0625 L 34.429688 179.890625 C 34.132812 179.75 33.914062 179.503906 33.804688 179.21875 C 33.699219 178.929688 33.699219 178.601562 33.835938 178.296875 C 33.976562 178 34.222656 177.78125 34.511719 177.675781 C 34.796875 177.566406 35.125 177.566406 35.429688 177.707031 Z M 43.117188 189.34375 C 43.445312 189.394531 43.722656 189.578125 43.898438 189.828125 C 44.074219 190.078125 44.160156 190.394531 44.105469 190.726562 C 44.054688 191.050781 43.871094 191.328125 43.621094 191.503906 C 43.371094 191.679688 43.054688 191.765625 42.722656 191.710938 L 32.871094 190.035156 C 32.546875 189.984375 32.265625 189.800781 32.089844 189.550781 C 31.914062 189.300781 31.828125 188.984375 31.882812 188.652344 C 31.9375 188.328125 32.117188 188.050781 32.367188 187.875 C 32.621094 187.695312 32.933594 187.613281 33.265625 187.664062 Z M 43.714844 196.917969 C 44.046875 196.886719 44.355469 196.996094 44.59375 197.191406 C 44.828125 197.390625 44.988281 197.671875 45.019531 198.003906 C 45.050781 198.335938 44.945312 198.644531 44.746094 198.878906 C 44.550781 199.113281 44.265625 199.273438 43.933594 199.304688 L 33.988281 200.234375 C 33.65625 200.269531 33.347656 200.160156 33.109375 199.964844 C 32.875 199.765625 32.714844 199.476562 32.683594 199.152344 C 32.652344 198.820312 32.757812 198.511719 32.957031 198.277344 C 33.152344 198.039062 33.441406 197.878906 33.769531 197.847656 Z M 46.246094 204.082031 C 46.558594 203.96875 46.886719 203.988281 47.167969 204.117188 C 47.445312 204.246094 47.671875 204.480469 47.789062 204.796875 C 47.902344 205.105469 47.882812 205.4375 47.753906 205.714844 C 47.625 205.992188 47.390625 206.222656 47.074219 206.339844 L 37.703125 209.808594 C 37.394531 209.921875 37.0625 209.902344 36.785156 209.773438 C 36.507812 209.644531 36.277344 209.410156 36.160156 209.09375 C 36.046875 208.785156 36.070312 208.453125 36.199219 208.175781 C 36.324219 207.898438 36.5625 207.667969 36.875 207.550781 Z M 50.539062 210.347656 C 50.8125 210.15625 51.132812 210.09375 51.4375 210.140625 C 51.742188 210.195312 52.027344 210.359375 52.21875 210.628906 C 52.410156 210.898438 52.472656 211.21875 52.425781 211.523438 C 52.371094 211.828125 52.207031 212.113281 51.941406 212.304688 L 43.785156 218.082031 C 43.511719 218.273438 43.191406 218.339844 42.890625 218.289062 C 42.585938 218.238281 42.300781 218.070312 42.109375 217.804688 C 41.917969 217.53125 41.851562 217.210938 41.902344 216.90625 C 41.953125 216.601562 42.121094 216.320312 42.386719 216.128906 Z M 56.3125 215.289062 C 56.527344 215.03125 56.820312 214.886719 57.125 214.855469 C 57.429688 214.828125 57.75 214.914062 58.007812 215.128906 C 58.261719 215.34375 58.40625 215.636719 58.4375 215.941406 C 58.464844 216.246094 58.378906 216.566406 58.167969 216.820312 L 51.785156 224.515625 C 51.570312 224.773438 51.277344 224.917969 50.972656 224.949219 C 50.667969 224.976562 50.347656 224.890625 50.09375 224.675781 C 49.835938 224.464844 49.691406 224.167969 49.660156 223.863281 C 49.632812 223.5625 49.71875 223.242188 49.933594 222.984375 Z M 63.171875 218.566406 C 63.308594 218.269531 63.554688 218.050781 63.84375 217.941406 C 64.132812 217.835938 64.457031 217.835938 64.761719 217.976562 C 65.0625 218.113281 65.28125 218.359375 65.386719 218.648438 C 65.492188 218.9375 65.492188 219.261719 65.355469 219.566406 L 61.183594 228.648438 C 61.042969 228.949219 60.800781 229.167969 60.511719 229.273438 C 60.222656 229.382812 59.898438 229.382812 59.59375 229.242188 C 59.292969 229.105469 59.074219 228.859375 58.96875 228.570312 C 58.859375 228.28125 58.859375 227.957031 59 227.652344 Z M 70.636719 219.960938 C 70.6875 219.636719 70.871094 219.359375 71.121094 219.183594 C 71.371094 219.003906 71.6875 218.921875 72.019531 218.972656 C 72.34375 219.027344 72.621094 219.207031 72.796875 219.460938 C 72.972656 219.710938 73.058594 220.027344 73.007812 220.355469 L 71.328125 230.210938 C 71.277344 230.535156 71.09375 230.8125 70.84375 230.988281 C 70.59375 231.164062 70.277344 231.25 69.945312 231.195312 C 69.621094 231.144531 69.34375 230.960938 69.167969 230.710938 C 68.992188 230.460938 68.90625 230.144531 68.957031 229.8125 Z M 78.214844 219.363281 C 78.179688 219.03125 78.289062 218.722656 78.484375 218.488281 C 78.683594 218.253906 78.972656 218.09375 79.296875 218.0625 C 79.628906 218.027344 79.9375 218.136719 80.171875 218.332031 C 80.40625 218.53125 80.566406 218.8125 80.601562 219.144531 L 81.527344 229.09375 C 81.5625 229.425781 81.453125 229.734375 81.257812 229.96875 C 81.058594 230.203125 80.777344 230.363281 80.445312 230.394531 C 80.113281 230.429688 79.804688 230.320312 79.570312 230.125 C 79.335938 229.925781 79.175781 229.636719 79.140625 229.3125 Z M 85.375 216.832031 C 85.261719 216.523438 85.285156 216.191406 85.410156 215.914062 C 85.539062 215.636719 85.773438 215.40625 86.089844 215.289062 C 86.398438 215.175781 86.730469 215.199219 87.007812 215.328125 C 87.285156 215.453125 87.515625 215.691406 87.632812 216.003906 L 91.105469 225.375 C 91.214844 225.6875 91.195312 226.015625 91.066406 226.292969 C 90.9375 226.574219 90.703125 226.800781 90.386719 226.917969 C 90.078125 227.03125 89.746094 227.011719 89.46875 226.882812 C 89.191406 226.753906 88.960938 226.519531 88.84375 226.203125 Z M 85.375 216.832031 " fill-opacity="1" fill-rule="evenodd"/></g><g transform="matrix(1, 0, 0, 1, 135, 155)"><g clip-path="url(#998cb15c50)"><g fill="#df6b00" fill-opacity="1"><g transform="translate(0.52356, 35.394809)"><g><path d="M 13.71875 0.609375 C 12.425781 0.609375 11.070312 0.445312 9.65625 0.125 C 8.238281 -0.195312 6.90625 -0.726562 5.65625 -1.46875 C 4.40625 -2.21875 3.363281 -3.234375 2.53125 -4.515625 C 1.707031 -5.804688 1.234375 -7.410156 1.109375 -9.328125 L 7.78125 -9.328125 C 8.09375 -8.128906 8.550781 -7.195312 9.15625 -6.53125 C 9.769531 -5.875 10.472656 -5.421875 11.265625 -5.171875 C 12.066406 -4.921875 12.875 -4.796875 13.6875 -4.796875 C 14.425781 -4.796875 15.117188 -4.898438 15.765625 -5.109375 C 16.421875 -5.328125 16.953125 -5.65625 17.359375 -6.09375 C 17.765625 -6.539062 17.96875 -7.125 17.96875 -7.84375 C 17.96875 -8.570312 17.691406 -9.144531 17.140625 -9.5625 C 16.585938 -9.976562 15.851562 -10.316406 14.9375 -10.578125 C 14.03125 -10.847656 13.035156 -11.101562 11.953125 -11.34375 C 10.804688 -11.601562 9.632812 -11.898438 8.4375 -12.234375 C 7.25 -12.578125 6.15625 -13.039062 5.15625 -13.625 C 4.164062 -14.21875 3.363281 -14.992188 2.75 -15.953125 C 2.144531 -16.910156 1.84375 -18.148438 1.84375 -19.671875 C 1.84375 -21.566406 2.296875 -23.128906 3.203125 -24.359375 C 4.117188 -25.597656 5.347656 -26.523438 6.890625 -27.140625 C 8.441406 -27.753906 10.15625 -28.0625 12.03125 -28.0625 C 13.945312 -28.0625 15.742188 -27.722656 17.421875 -27.046875 C 19.109375 -26.378906 20.515625 -25.363281 21.640625 -24 C 22.773438 -22.644531 23.484375 -20.945312 23.765625 -18.90625 L 17.109375 -18.90625 C 16.796875 -20.082031 16.179688 -21 15.265625 -21.65625 C 14.359375 -22.320312 13.234375 -22.65625 11.890625 -22.65625 C 10.972656 -22.65625 10.132812 -22.460938 9.375 -22.078125 C 8.625 -21.691406 8.25 -21.066406 8.25 -20.203125 C 8.25 -19.554688 8.507812 -19.023438 9.03125 -18.609375 C 9.5625 -18.203125 10.269531 -17.875 11.15625 -17.625 C 12.050781 -17.375 13.015625 -17.128906 14.046875 -16.890625 C 15.203125 -16.628906 16.390625 -16.320312 17.609375 -15.96875 C 18.835938 -15.625 19.96875 -15.144531 21 -14.53125 C 22.03125 -13.914062 22.863281 -13.097656 23.5 -12.078125 C 24.132812 -11.054688 24.453125 -9.753906 24.453125 -8.171875 C 24.453125 -6.367188 24.019531 -4.8125 23.15625 -3.5 C 22.289062 -2.195312 21.0625 -1.1875 19.46875 -0.46875 C 17.875 0.25 15.957031 0.609375 13.71875 0.609375 Z M 13.71875 0.609375 "/></g></g></g><g fill="#df6b00" fill-opacity="1"><g transform="translate(23.821022, 35.394809)"><g><path d="M 14.875 0.609375 C 12.519531 0.609375 10.476562 0.226562 8.75 -0.53125 C 7.019531 -1.300781 5.597656 -2.351562 4.484375 -3.6875 C 3.367188 -5.019531 2.535156 -6.550781 1.984375 -8.28125 C 1.429688 -10.007812 1.15625 -11.835938 1.15625 -13.765625 C 1.15625 -15.679688 1.429688 -17.5 1.984375 -19.21875 C 2.535156 -20.9375 3.367188 -22.457031 4.484375 -23.78125 C 5.597656 -25.113281 7.019531 -26.160156 8.75 -26.921875 C 10.476562 -27.679688 12.519531 -28.0625 14.875 -28.0625 C 17.207031 -28.0625 19.226562 -27.679688 20.9375 -26.921875 C 22.65625 -26.160156 24.078125 -25.113281 25.203125 -23.78125 C 26.335938 -22.457031 27.179688 -20.9375 27.734375 -19.21875 C 28.285156 -17.5 28.5625 -15.679688 28.5625 -13.765625 C 28.5625 -11.835938 28.285156 -10.007812 27.734375 -8.28125 C 27.179688 -6.550781 26.335938 -5.019531 25.203125 -3.6875 C 24.078125 -2.351562 22.65625 -1.300781 20.9375 -0.53125 C 19.226562 0.226562 17.207031 0.609375 14.875 0.609375 Z M 14.875 -5.15625 C 17.03125 -5.15625 18.710938 -5.929688 19.921875 -7.484375 C 21.140625 -9.046875 21.75 -11.140625 21.75 -13.765625 C 21.75 -16.347656 21.140625 -18.414062 19.921875 -19.96875 C 18.710938 -21.519531 17.03125 -22.296875 14.875 -22.296875 C 12.71875 -22.296875 11.023438 -21.519531 9.796875 -19.96875 C 8.566406 -18.414062 7.953125 -16.347656 7.953125 -13.765625 C 7.953125 -11.140625 8.566406 -9.046875 9.796875 -7.484375 C 11.023438 -5.929688 12.71875 -5.15625 14.875 -5.15625 Z M 14.875 -5.15625 "/></g></g></g><g fill="#df6b00" fill-opacity="1"><g transform="translate(51.223476, 35.394809)"><g><path d="M 8.609375 0 L 2.15625 0 L 2.15625 -27.484375 L 20.921875 -27.484375 L 20.921875 -21.71875 L 8.609375 -21.71875 L 8.609375 -16.609375 L 19.734375 -16.609375 L 19.734375 -10.875 L 8.609375 -10.875 Z M 8.609375 0 "/></g></g></g><g fill="#df6b00" fill-opacity="1"><g transform="translate(70.704017, 35.394809)"><g><path d="M 14.484375 0 L 8.03125 0 L 8.03125 -21.71875 L 0.28125 -21.71875 L 0.28125 -27.484375 L 22.21875 -27.484375 L 22.21875 -21.71875 L 14.484375 -21.71875 Z M 14.484375 0 "/></g></g></g><g fill="#df6b00" fill-opacity="1"><g transform="translate(90.868722, 35.394809)"><g><path d="M 19.8125 0 L 2.15625 0 L 2.15625 -27.484375 L 8.609375 -27.484375 L 8.609375 -5.765625 L 19.8125 -5.765625 Z M 19.8125 0 "/></g></g></g><g fill="#df6b00" fill-opacity="1"><g transform="translate(108.620838, 35.394809)"><g><path d="M 13.578125 0.609375 C 10.742188 0.609375 8.46875 0.140625 6.75 -0.796875 C 5.03125 -1.734375 3.785156 -3.019531 3.015625 -4.65625 C 2.253906 -6.300781 1.875 -8.171875 1.875 -10.265625 L 1.875 -27.484375 L 8.359375 -27.484375 L 8.359375 -10.265625 C 8.359375 -9.328125 8.5 -8.472656 8.78125 -7.703125 C 9.070312 -6.941406 9.59375 -6.328125 10.34375 -5.859375 C 11.101562 -5.390625 12.179688 -5.15625 13.578125 -5.15625 C 14.972656 -5.15625 16.039062 -5.390625 16.78125 -5.859375 C 17.53125 -6.328125 18.046875 -6.941406 18.328125 -7.703125 C 18.617188 -8.472656 18.765625 -9.328125 18.765625 -10.265625 L 18.765625 -27.484375 L 25.25 -27.484375 L 25.25 -10.265625 C 25.25 -8.171875 24.863281 -6.300781 24.09375 -4.65625 C 23.320312 -3.019531 22.082031 -1.734375 20.375 -0.796875 C 18.675781 0.140625 16.410156 0.609375 13.578125 0.609375 Z M 13.578125 0.609375 "/></g></g></g><g fill="#df6b00" fill-opacity="1"><g transform="translate(133.430664, 35.394809)"><g><path d="M 14.484375 0 L 8.03125 0 L 8.03125 -21.71875 L 0.28125 -21.71875 L 0.28125 -27.484375 L 22.21875 -27.484375 L 22.21875 -21.71875 L 14.484375 -21.71875 Z M 14.484375 0 "/></g></g></g><g fill="#df6b00" fill-opacity="1"><g transform="translate(153.595377, 35.394809)"><g><path d="M 8.609375 0 L 2.15625 0 L 2.15625 -27.484375 L 8.609375 -27.484375 Z M 8.609375 0 "/></g></g></g><g fill="#df6b00" fill-opacity="1"><g transform="translate(162.057244, 35.394809)"><g><path d="M 14.875 0.609375 C 12.519531 0.609375 10.476562 0.226562 8.75 -0.53125 C 7.019531 -1.300781 5.597656 -2.351562 4.484375 -3.6875 C 3.367188 -5.019531 2.535156 -6.550781 1.984375 -8.28125 C 1.429688 -10.007812 1.15625 -11.835938 1.15625 -13.765625 C 1.15625 -15.679688 1.429688 -17.5 1.984375 -19.21875 C 2.535156 -20.9375 3.367188 -22.457031 4.484375 -23.78125 C 5.597656 -25.113281 7.019531 -26.160156 8.75 -26.921875 C 10.476562 -27.679688 12.519531 -28.0625 14.875 -28.0625 C 17.207031 -28.0625 19.226562 -27.679688 20.9375 -26.921875 C 22.65625 -26.160156 24.078125 -25.113281 25.203125 -23.78125 C 26.335938 -22.457031 27.179688 -20.9375 27.734375 -19.21875 C 28.285156 -17.5 28.5625 -15.679688 28.5625 -13.765625 C 28.5625 -11.835938 28.285156 -10.007812 27.734375 -8.28125 C 27.179688 -6.550781 26.335938 -5.019531 25.203125 -3.6875 C 24.078125 -2.351562 22.65625 -1.300781 20.9375 -0.53125 C 19.226562 0.226562 17.207031 0.609375 14.875 0.609375 Z M 14.875 -5.15625 C 17.03125 -5.15625 18.710938 -5.929688 19.921875 -7.484375 C 21.140625 -9.046875 21.75 -11.140625 21.75 -13.765625 C 21.75 -16.347656 21.140625 -18.414062 19.921875 -19.96875 C 18.710938 -21.519531 17.03125 -22.296875 14.875 -22.296875 C 12.71875 -22.296875 11.023438 -21.519531 9.796875 -19.96875 C 8.566406 -18.414062 7.953125 -16.347656 7.953125 -13.765625 C 7.953125 -11.140625 8.566406 -9.046875 9.796875 -7.484375 C 11.023438 -5.929688 12.71875 -5.15625 14.875 -5.15625 Z M 14.875 -5.15625 "/></g></g></g><g clip-path="url(#369c01dd9b)"><g fill="#df6b00" fill-opacity="1"><g transform="translate(189.45969, 35.394809)"><g><path d="M 8.609375 0 L 2.15625 0 L 2.15625 -27.484375 L 8.71875 -27.484375 L 19.265625 -10.796875 L 19.265625 -27.484375 L 25.71875 -27.484375 L 25.71875 0 L 19.15625 0 L 8.609375 -16.78125 Z M 8.609375 0 "/></g></g></g></g><g fill="#df6b00" fill-opacity="1"><g transform="translate(0.52356, 71.233128)"><g><path d="M 10.875 0.609375 C 9.675781 0.609375 8.503906 0.453125 7.359375 0.140625 C 6.222656 -0.171875 5.195312 -0.628906 4.28125 -1.234375 C 3.375 -1.847656 2.65625 -2.609375 2.125 -3.515625 C 1.59375 -4.429688 1.328125 -5.503906 1.328125 -6.734375 C 1.328125 -8.054688 1.578125 -9.175781 2.078125 -10.09375 C 2.585938 -11.019531 3.3125 -11.867188 4.25 -12.640625 C 5.1875 -13.410156 6.28125 -14.191406 7.53125 -14.984375 C 6.394531 -16.109375 5.59375 -17.148438 5.125 -18.109375 C 4.664062 -19.078125 4.4375 -20.171875 4.4375 -21.390625 C 4.4375 -22.691406 4.773438 -23.84375 5.453125 -24.84375 C 6.140625 -25.851562 7.082031 -26.640625 8.28125 -27.203125 C 9.476562 -27.773438 10.859375 -28.0625 12.421875 -28.0625 C 14.796875 -28.0625 16.660156 -27.5 18.015625 -26.375 C 19.378906 -25.257812 20.0625 -23.71875 20.0625 -21.75 C 20.0625 -18.945312 18.515625 -16.453125 15.421875 -14.265625 L 18.90625 -9.71875 C 19.21875 -10.414062 19.445312 -11.078125 19.59375 -11.703125 C 19.738281 -12.328125 19.847656 -13.046875 19.921875 -13.859375 L 25.46875 -13.859375 C 25.25 -10.546875 24.25 -7.679688 22.46875 -5.265625 L 26.65625 0 L 19.375 0 L 18.046875 -1.6875 C 17.015625 -0.800781 15.878906 -0.195312 14.640625 0.125 C 13.398438 0.445312 12.144531 0.609375 10.875 0.609375 Z M 12 -17.859375 C 13.582031 -19.015625 14.375 -20.171875 14.375 -21.328125 C 14.375 -21.921875 14.195312 -22.394531 13.84375 -22.75 C 13.5 -23.113281 13.023438 -23.296875 12.421875 -23.296875 C 11.847656 -23.296875 11.363281 -23.101562 10.96875 -22.71875 C 10.570312 -22.34375 10.375 -21.863281 10.375 -21.28125 C 10.375 -20.707031 10.492188 -20.164062 10.734375 -19.65625 C 10.972656 -19.15625 11.394531 -18.554688 12 -17.859375 Z M 11.0625 -4.5 C 11.75 -4.5 12.445312 -4.609375 13.15625 -4.828125 C 13.863281 -5.046875 14.484375 -5.3125 15.015625 -5.625 L 10.625 -11.234375 C 9.632812 -10.585938 8.828125 -9.9375 8.203125 -9.28125 C 7.585938 -8.632812 7.28125 -7.894531 7.28125 -7.0625 C 7.28125 -6.21875 7.660156 -5.578125 8.421875 -5.140625 C 9.191406 -4.710938 10.070312 -4.5 11.0625 -4.5 Z M 11.0625 -4.5 "/></g></g></g><g fill="#df6b00" fill-opacity="1"><g transform="translate(25.549439, 71.233128)"><g/></g></g><g fill="#df6b00" fill-opacity="1"><g transform="translate(32.57096, 71.233128)"><g><path d="M 19.875 -11.78125 L 24.640625 0 L 17.828125 0 L 13.828125 -10.59375 L 8.609375 -10.59375 L 8.609375 0 L 2.15625 0 L 2.15625 -27.484375 L 15.125 -27.484375 C 16.800781 -27.484375 18.296875 -27.207031 19.609375 -26.65625 C 20.921875 -26.101562 21.945312 -25.21875 22.6875 -24 C 23.4375 -22.789062 23.8125 -21.191406 23.8125 -19.203125 C 23.8125 -17.441406 23.457031 -15.9375 22.75 -14.6875 C 22.039062 -13.445312 21.082031 -12.476562 19.875 -11.78125 Z M 14.21875 -21.71875 L 8.609375 -21.71875 L 8.609375 -16.171875 L 14.21875 -16.171875 C 16.363281 -16.171875 17.4375 -17.109375 17.4375 -18.984375 C 17.4375 -20.804688 16.363281 -21.71875 14.21875 -21.71875 Z M 14.21875 -21.71875 "/></g></g></g><g fill="#df6b00" fill-opacity="1"><g transform="translate(55.724387, 71.233128)"><g><path d="M 14.875 0.609375 C 12.519531 0.609375 10.476562 0.226562 8.75 -0.53125 C 7.019531 -1.300781 5.597656 -2.351562 4.484375 -3.6875 C 3.367188 -5.019531 2.535156 -6.550781 1.984375 -8.28125 C 1.429688 -10.007812 1.15625 -11.835938 1.15625 -13.765625 C 1.15625 -15.679688 1.429688 -17.5 1.984375 -19.21875 C 2.535156 -20.9375 3.367188 -22.457031 4.484375 -23.78125 C 5.597656 -25.113281 7.019531 -26.160156 8.75 -26.921875 C 10.476562 -27.679688 12.519531 -28.0625 14.875 -28.0625 C 17.207031 -28.0625 19.226562 -27.679688 20.9375 -26.921875 C 22.65625 -26.160156 24.078125 -25.113281 25.203125 -23.78125 C 26.335938 -22.457031 27.179688 -20.9375 27.734375 -19.21875 C 28.285156 -17.5 28.5625 -15.679688 28.5625 -13.765625 C 28.5625 -11.835938 28.285156 -10.007812 27.734375 -8.28125 C 27.179688 -6.550781 26.335938 -5.019531 25.203125 -3.6875 C 24.078125 -2.351562 22.65625 -1.300781 20.9375 -0.53125 C 19.226562 0.226562 17.207031 0.609375 14.875 0.609375 Z M 14.875 -5.15625 C 17.03125 -5.15625 18.710938 -5.929688 19.921875 -7.484375 C 21.140625 -9.046875 21.75 -11.140625 21.75 -13.765625 C 21.75 -16.347656 21.140625 -18.414062 19.921875 -19.96875 C 18.710938 -21.519531 17.03125 -22.296875 14.875 -22.296875 C 12.71875 -22.296875 11.023438 -21.519531 9.796875 -19.96875 C 8.566406 -18.414062 7.953125 -16.347656 7.953125 -13.765625 C 7.953125 -11.140625 8.566406 -9.046875 9.796875 -7.484375 C 11.023438 -5.929688 12.71875 -5.15625 14.875 -5.15625 Z M 14.875 -5.15625 "/></g></g></g></g></g><g clip-path="url(#a0e90f9f54)"><path fill="#120e00" d="M 78.8125 189.933594 C 78.8125 190.484375 78.757812 191.027344 78.648438 191.566406 C 78.542969 192.109375 78.382812 192.632812 78.171875 193.140625 C 77.960938 193.648438 77.703125 194.132812 77.398438 194.589844 C 77.09375 195.046875 76.746094 195.472656 76.355469 195.859375 C 75.964844 196.25 75.542969 196.597656 75.085938 196.902344 C 74.628906 197.210938 74.144531 197.46875 73.636719 197.679688 C 73.125 197.890625 72.601562 198.046875 72.0625 198.15625 C 71.523438 198.261719 70.976562 198.316406 70.425781 198.316406 C 69.875 198.316406 69.332031 198.261719 68.792969 198.15625 C 68.25 198.046875 67.726562 197.890625 67.21875 197.679688 C 66.710938 197.46875 66.226562 197.210938 65.769531 196.902344 C 65.3125 196.597656 64.886719 196.25 64.5 195.859375 C 64.109375 195.472656 63.761719 195.046875 63.457031 194.589844 C 63.148438 194.132812 62.890625 193.648438 62.679688 193.140625 C 62.46875 192.632812 62.3125 192.109375 62.203125 191.566406 C 62.097656 191.027344 62.042969 190.484375 62.042969 189.933594 C 62.042969 189.382812 62.097656 188.835938 62.203125 188.296875 C 62.3125 187.757812 62.46875 187.234375 62.679688 186.722656 C 62.890625 186.214844 63.148438 185.730469 63.457031 185.273438 C 63.761719 184.816406 64.109375 184.394531 64.5 184.003906 C 64.886719 183.613281 65.3125 183.265625 65.769531 182.960938 C 66.226562 182.65625 66.710938 182.398438 67.21875 182.1875 C 67.726562 181.976562 68.25 181.816406 68.792969 181.710938 C 69.332031 181.601562 69.875 181.546875 70.425781 181.546875 C 70.976562 181.546875 71.523438 181.601562 72.0625 181.710938 C 72.601562 181.816406 73.125 181.976562 73.636719 182.1875 C 74.144531 182.398438 74.628906 182.65625 75.085938 182.960938 C 75.542969 183.265625 75.964844 183.613281 76.355469 184.003906 C 76.746094 184.394531 77.09375 184.816406 77.398438 185.273438 C 77.703125 185.730469 77.960938 186.214844 78.171875 186.722656 C 78.382812 187.234375 78.542969 187.757812 78.648438 188.296875 C 78.757812 188.835938 78.8125 189.382812 78.8125 189.933594 Z M 78.8125 189.933594 " fill-opacity="1" fill-rule="nonzero"/></g><g clip-path="url(#02ae0f5088)"><path fill="#120e00" d="M 117.089844 181.621094 L 105.371094 179.425781 C 104.65625 177.054688 103.722656 174.78125 102.570312 172.644531 L 109.351562 162.730469 C 109.976562 161.8125 109.847656 160.433594 109.0625 159.648438 L 100.703125 151.285156 C 99.914062 150.5 98.539062 150.371094 97.621094 150.996094 L 87.703125 157.78125 C 85.503906 156.59375 83.160156 155.644531 80.714844 154.925781 L 78.53125 143.265625 C 78.324219 142.175781 77.261719 141.289062 76.148438 141.289062 L 64.324219 141.289062 C 63.210938 141.289062 62.144531 142.175781 61.9375 143.265625 L 59.730469 155.039062 C 57.386719 155.757812 55.140625 156.691406 53.023438 157.839844 L 43.230469 151.140625 C 42.316406 150.515625 40.933594 150.644531 40.148438 151.429688 L 31.789062 159.792969 C 31 160.578125 30.875 161.957031 31.5 162.875 L 38.242188 172.726562 C 37.105469 174.84375 36.1875 177.085938 35.480469 179.425781 L 23.765625 181.621094 C 22.671875 181.828125 21.789062 182.894531 21.789062 184.007812 L 21.789062 195.832031 C 21.789062 196.945312 22.671875 198.007812 23.765625 198.214844 L 35.472656 200.410156 C 36.1875 202.800781 37.128906 205.09375 38.292969 207.25 L 31.628906 216.992188 C 31 217.910156 31.128906 219.289062 31.917969 220.074219 L 40.277344 228.4375 C 41.0625 229.222656 42.441406 229.351562 43.359375 228.726562 L 53.097656 222.058594 C 55.191406 223.191406 57.414062 224.113281 59.734375 224.824219 L 61.941406 236.601562 C 62.148438 237.691406 63.214844 238.574219 64.328125 238.574219 L 76.152344 238.574219 C 77.265625 238.574219 78.328125 237.691406 78.535156 236.601562 L 80.71875 224.9375 C 83.136719 224.226562 85.457031 223.285156 87.636719 222.121094 L 97.5 228.867188 C 98.417969 229.496094 99.800781 229.367188 100.582031 228.578125 L 108.945312 220.222656 C 109.730469 219.433594 109.855469 218.058594 109.230469 217.140625 L 102.519531 207.332031 C 103.707031 205.152344 104.660156 202.832031 105.382812 200.410156 L 117.09375 198.214844 C 118.183594 198.007812 119.066406 196.945312 119.066406 195.832031 L 119.066406 184.007812 C 119.066406 182.894531 118.179688 181.828125 117.089844 181.621094 Z M 70.425781 210.222656 C 59.222656 210.222656 50.140625 201.140625 50.140625 189.929688 C 50.140625 178.730469 59.222656 169.644531 70.425781 169.644531 C 81.632812 169.644531 90.71875 178.730469 90.71875 189.929688 C 90.71875 201.140625 81.632812 210.222656 70.425781 210.222656 Z M 70.425781 210.222656 " fill-opacity="1" fill-rule="nonzero"/></g></svg>